<?xml version="1.0" encoding="utf-8" standalone="no"?>
<!DOCTYPE svg PUBLIC "-//W3C//DTD SVG 1.1//EN"
  "http://www.w3.org/Graphics/SVG/1.1/DTD/svg11.dtd">
<svg xmlns:xlink="http://www.w3.org/1999/xlink" width="466.38pt" height="346.08pt" viewBox="0 0 466.38 346.08" xmlns="http://www.w3.org/2000/svg" version="1.1">
 <metadata>
  <rdf:RDF xmlns:dc="http://purl.org/dc/elements/1.1/" xmlns:cc="http://creativecommons.org/ns#" xmlns:rdf="http://www.w3.org/1999/02/22-rdf-syntax-ns#">
   <cc:Work>
    <dc:type rdf:resource="http://purl.org/dc/dcmitype/StillImage"/>
    <dc:date>2026-04-22T02:45:07.567109</dc:date>
    <dc:format>image/svg+xml</dc:format>
    <dc:creator>
     <cc:Agent>
      <dc:title>Matplotlib v3.10.8, https://matplotlib.org/</dc:title>
     </cc:Agent>
    </dc:creator>
   </cc:Work>
  </rdf:RDF>
 </metadata>
 <defs>
  <style type="text/css">*{stroke-linejoin: round; stroke-linecap: butt}</style>
 </defs>
 <g id="figure_1">
  <g id="patch_1">
   <path d="M 0 346.08 
L 466.38 346.08 
L 466.38 0 
L 0 0 
z
" style="fill: #ffffff"/>
  </g>
  <g id="axes_1">
   <g id="patch_2">
    <path d="M 102.447427 102.193714 
Q 181.979862 141.959931 259.312297 180.626148 
" clip-path="url(#p0412c34ddd)" style="fill: none; stroke: #c0392b; stroke-width: 2.2; stroke-linecap: round"/>
    <path d="M 254.48239 174.186273 
L 259.312297 180.626148 
L 251.262452 180.626148 
z
" clip-path="url(#p0412c34ddd)" style="fill: #c0392b; stroke: #c0392b; stroke-width: 2.2; stroke-linecap: round"/>
   </g>
   <g id="patch_3">
    <path d="M 89.518 114.099987 
Q 112.447617 160.737307 157.681929 182.974697 
" clip-path="url(#p0412c34ddd)" style="fill: none; stroke: #333333; stroke-width: 1.4; stroke-linecap: round"/>
    <path d="M 152.808734 176.567515 
L 157.681929 182.974697 
L 149.632267 183.028944 
z
" clip-path="url(#p0412c34ddd)" style="fill: #333333; stroke: #333333; stroke-width: 1.4; stroke-linecap: round"/>
   </g>
   <g id="patch_4">
    <path d="M 284.22 270.138913 
Q 284.22 244.310726 284.22 220.942213 
" clip-path="url(#p0412c34ddd)" style="fill: none; stroke: #c0392b; stroke-width: 2.2; stroke-linecap: round"/>
    <path d="M 280.62 228.142213 
L 284.22 220.942213 
L 287.82 228.142213 
z
" clip-path="url(#p0412c34ddd)" style="fill: #c0392b; stroke: #c0392b; stroke-width: 2.2; stroke-linecap: round"/>
   </g>
   <g id="patch_5">
    <path d="M 207.161087 193.08 
Q 232.989274 193.08 256.357787 193.08 
" clip-path="url(#p0412c34ddd)" style="fill: none; stroke: #c0392b; stroke-width: 2.2; stroke-linecap: round"/>
    <path d="M 249.157787 189.48 
L 256.357787 193.08 
L 249.157787 196.68 
z
" clip-path="url(#p0412c34ddd)" style="fill: #c0392b; stroke: #c0392b; stroke-width: 2.2; stroke-linecap: round"/>
   </g>
   <g id="patch_6">
    <path d="M 284.22 217.38 
C 290.664435 217.38 296.845791 214.819599 301.402695 210.262695 
C 305.959599 205.705791 308.52 199.524435 308.52 193.08 
C 308.52 186.635565 305.959599 180.454209 301.402695 175.897305 
C 296.845791 171.340401 290.664435 168.78 284.22 168.78 
C 277.775565 168.78 271.594209 171.340401 267.037305 175.897305 
C 262.480401 180.454209 259.92 186.635565 259.92 193.08 
C 259.92 199.524435 262.480401 205.705791 267.037305 210.262695 
C 271.594209 214.819599 277.775565 217.38 284.22 217.38 
z
" clip-path="url(#p0412c34ddd)" style="fill: #e8e8e8; stroke: #c0392b; stroke-width: 2.2; stroke-linejoin: miter"/>
   </g>
   <g id="patch_7">
    <path d="M 182.16 217.38 
C 188.604435 217.38 194.785791 214.819599 199.342695 210.262695 
C 203.899599 205.705791 206.46 199.524435 206.46 193.08 
C 206.46 186.635565 203.899599 180.454209 199.342695 175.897305 
C 194.785791 171.340401 188.604435 168.78 182.16 168.78 
C 175.715565 168.78 169.534209 171.340401 164.977305 175.897305 
C 160.420401 180.454209 157.86 186.635565 157.86 193.08 
C 157.86 199.524435 160.420401 205.705791 164.977305 210.262695 
C 169.534209 214.819599 175.715565 217.38 182.16 217.38 
z
" clip-path="url(#p0412c34ddd)" style="fill: #e8e8e8; stroke: #333333; stroke-width: 1.4; stroke-linejoin: miter"/>
   </g>
   <g id="patch_8">
    <path d="M 284.22 319.44 
C 290.664435 319.44 296.845791 316.879599 301.402695 312.322695 
C 305.959599 307.765791 308.52 301.584435 308.52 295.14 
C 308.52 288.695565 305.959599 282.514209 301.402695 277.957305 
C 296.845791 273.400401 290.664435 270.84 284.22 270.84 
C 277.775565 270.84 271.594209 273.400401 267.037305 277.957305 
C 262.480401 282.514209 259.92 288.695565 259.92 295.14 
C 259.92 301.584435 262.480401 307.765791 267.037305 312.322695 
C 271.594209 316.879599 277.775565 319.44 284.22 319.44 
z
" clip-path="url(#p0412c34ddd)" style="fill: #e8e8e8; stroke: #333333; stroke-width: 1.4; stroke-linejoin: miter"/>
   </g>
   <g id="patch_9">
    <path d="M 80.1 115.32 
C 86.544435 115.32 92.725791 112.759599 97.282695 108.202695 
C 101.839599 103.645791 104.4 97.464435 104.4 91.02 
C 104.4 84.575565 101.839599 78.394209 97.282695 73.837305 
C 92.725791 69.280401 86.544435 66.72 80.1 66.72 
C 73.655565 66.72 67.474209 69.280401 62.917305 73.837305 
C 58.360401 78.394209 55.8 84.575565 55.8 91.02 
C 55.8 97.464435 58.360401 103.645791 62.917305 108.202695 
C 67.474209 112.759599 73.655565 115.32 80.1 115.32 
z
" clip-path="url(#p0412c34ddd)" style="fill: #ffffff; stroke: #333333; stroke-width: 1.4; stroke-linejoin: miter"/>
   </g>
   <g id="text_1">
    <!-- $X_{t}$ -->
    <g transform="translate(276.3 197.495) scale(0.16 -0.16)">
     <defs>
      <path id="DejaVuSans-Oblique-58" d="M 878 4666 
L 1516 4666 
L 2316 2981 
L 3763 4666 
L 4500 4666 
L 2578 2438 
L 3738 0 
L 3103 0 
L 2163 1966 
L 459 0 
L -275 0 
L 1906 2509 
L 878 4666 
z
" transform="scale(0.015625)"/>
      <path id="DejaVuSans-Oblique-74" d="M 2706 3500 
L 2619 3053 
L 1472 3053 
L 1100 1153 
Q 1081 1047 1072 975 
Q 1063 903 1063 863 
Q 1063 663 1183 572 
Q 1303 481 1569 481 
L 2150 481 
L 2053 0 
L 1503 0 
Q 991 0 739 200 
Q 488 400 488 806 
Q 488 878 497 964 
Q 506 1050 525 1153 
L 897 3053 
L 409 3053 
L 500 3500 
L 978 3500 
L 1172 4494 
L 1747 4494 
L 1556 3500 
L 2706 3500 
z
" transform="scale(0.015625)"/>
     </defs>
     <use xlink:href="#DejaVuSans-Oblique-58" transform="translate(0 0.09375)"/>
     <use xlink:href="#DejaVuSans-Oblique-74" transform="translate(68.505859 -16.3125) scale(0.7)"/>
    </g>
   </g>
   <g id="text_2">
    <!-- $P_{t}$ -->
    <g transform="translate(174.88 197.495) scale(0.16 -0.16)">
     <defs>
      <path id="DejaVuSans-Oblique-50" d="M 1081 4666 
L 2541 4666 
Q 3178 4666 3512 4369 
Q 3847 4072 3847 3500 
Q 3847 2731 3353 2303 
Q 2859 1875 1966 1875 
L 1172 1875 
L 806 0 
L 172 0 
L 1081 4666 
z
M 1613 4147 
L 1275 2394 
L 2069 2394 
Q 2606 2394 2893 2669 
Q 3181 2944 3181 3456 
Q 3181 3784 2986 3965 
Q 2791 4147 2438 4147 
L 1613 4147 
z
" transform="scale(0.015625)"/>
     </defs>
     <use xlink:href="#DejaVuSans-Oblique-50" transform="translate(0 0.09375)"/>
     <use xlink:href="#DejaVuSans-Oblique-74" transform="translate(60.302734 -16.3125) scale(0.7)"/>
    </g>
   </g>
   <g id="text_3">
    <!-- $E_{t}$ -->
    <g transform="translate(276.7 299.555) scale(0.16 -0.16)">
     <defs>
      <path id="DejaVuSans-Oblique-45" d="M 1081 4666 
L 4031 4666 
L 3928 4134 
L 1606 4134 
L 1338 2753 
L 3566 2753 
L 3463 2222 
L 1234 2222 
L 909 531 
L 3284 531 
L 3181 0 
L 172 0 
L 1081 4666 
z
" transform="scale(0.015625)"/>
     </defs>
     <use xlink:href="#DejaVuSans-Oblique-45" transform="translate(0 0.09375)"/>
     <use xlink:href="#DejaVuSans-Oblique-74" transform="translate(63.183594 -16.3125) scale(0.7)"/>
    </g>
   </g>
   <g id="text_4">
    <!-- $Z_{t-1}$ -->
    <g transform="translate(61.7 95.435) scale(0.16 -0.16)">
     <defs>
      <path id="DejaVuSans-Oblique-5a" d="M 838 4666 
L 4500 4666 
L 4409 4184 
L 794 531 
L 3769 531 
L 3669 0 
L -141 0 
L -50 481 
L 3566 4134 
L 738 4134 
L 838 4666 
z
" transform="scale(0.015625)"/>
      <path id="DejaVuSans-2212" d="M 678 2272 
L 4684 2272 
L 4684 1741 
L 678 1741 
L 678 2272 
z
" transform="scale(0.015625)"/>
      <path id="DejaVuSans-31" d="M 794 531 
L 1825 531 
L 1825 4091 
L 703 3866 
L 703 4441 
L 1819 4666 
L 2450 4666 
L 2450 531 
L 3481 531 
L 3481 0 
L 794 0 
L 794 531 
z
" transform="scale(0.015625)"/>
     </defs>
     <use xlink:href="#DejaVuSans-Oblique-5a" transform="translate(0 0.09375)"/>
     <use xlink:href="#DejaVuSans-Oblique-74" transform="translate(68.505859 -16.3125) scale(0.7)"/>
     <use xlink:href="#DejaVuSans-2212" transform="translate(109.589844 -16.3125) scale(0.7)"/>
     <use xlink:href="#DejaVuSans-31" transform="translate(181.879883 -16.3125) scale(0.7)"/>
    </g>
   </g>
   <g id="text_5">
    <!-- Step 4 — execution $X_t$: observation edges -->
    <g style="fill: #333333" transform="translate(7.2 17.84) scale(0.14 -0.14)">
     <defs>
      <path id="DejaVuSans-53" d="M 3425 4513 
L 3425 3897 
Q 3066 4069 2747 4153 
Q 2428 4238 2131 4238 
Q 1616 4238 1336 4038 
Q 1056 3838 1056 3469 
Q 1056 3159 1242 3001 
Q 1428 2844 1947 2747 
L 2328 2669 
Q 3034 2534 3370 2195 
Q 3706 1856 3706 1288 
Q 3706 609 3251 259 
Q 2797 -91 1919 -91 
Q 1588 -91 1214 -16 
Q 841 59 441 206 
L 441 856 
Q 825 641 1194 531 
Q 1563 422 1919 422 
Q 2459 422 2753 634 
Q 3047 847 3047 1241 
Q 3047 1584 2836 1778 
Q 2625 1972 2144 2069 
L 1759 2144 
Q 1053 2284 737 2584 
Q 422 2884 422 3419 
Q 422 4038 858 4394 
Q 1294 4750 2059 4750 
Q 2388 4750 2728 4690 
Q 3069 4631 3425 4513 
z
" transform="scale(0.015625)"/>
      <path id="DejaVuSans-74" d="M 1172 4494 
L 1172 3500 
L 2356 3500 
L 2356 3053 
L 1172 3053 
L 1172 1153 
Q 1172 725 1289 603 
Q 1406 481 1766 481 
L 2356 481 
L 2356 0 
L 1766 0 
Q 1100 0 847 248 
Q 594 497 594 1153 
L 594 3053 
L 172 3053 
L 172 3500 
L 594 3500 
L 594 4494 
L 1172 4494 
z
" transform="scale(0.015625)"/>
      <path id="DejaVuSans-65" d="M 3597 1894 
L 3597 1613 
L 953 1613 
Q 991 1019 1311 708 
Q 1631 397 2203 397 
Q 2534 397 2845 478 
Q 3156 559 3463 722 
L 3463 178 
Q 3153 47 2828 -22 
Q 2503 -91 2169 -91 
Q 1331 -91 842 396 
Q 353 884 353 1716 
Q 353 2575 817 3079 
Q 1281 3584 2069 3584 
Q 2775 3584 3186 3129 
Q 3597 2675 3597 1894 
z
M 3022 2063 
Q 3016 2534 2758 2815 
Q 2500 3097 2075 3097 
Q 1594 3097 1305 2825 
Q 1016 2553 972 2059 
L 3022 2063 
z
" transform="scale(0.015625)"/>
      <path id="DejaVuSans-70" d="M 1159 525 
L 1159 -1331 
L 581 -1331 
L 581 3500 
L 1159 3500 
L 1159 2969 
Q 1341 3281 1617 3432 
Q 1894 3584 2278 3584 
Q 2916 3584 3314 3078 
Q 3713 2572 3713 1747 
Q 3713 922 3314 415 
Q 2916 -91 2278 -91 
Q 1894 -91 1617 61 
Q 1341 213 1159 525 
z
M 3116 1747 
Q 3116 2381 2855 2742 
Q 2594 3103 2138 3103 
Q 1681 3103 1420 2742 
Q 1159 2381 1159 1747 
Q 1159 1113 1420 752 
Q 1681 391 2138 391 
Q 2594 391 2855 752 
Q 3116 1113 3116 1747 
z
" transform="scale(0.015625)"/>
      <path id="DejaVuSans-20" transform="scale(0.015625)"/>
      <path id="DejaVuSans-34" d="M 2419 4116 
L 825 1625 
L 2419 1625 
L 2419 4116 
z
M 2253 4666 
L 3047 4666 
L 3047 1625 
L 3713 1625 
L 3713 1100 
L 3047 1100 
L 3047 0 
L 2419 0 
L 2419 1100 
L 313 1100 
L 313 1709 
L 2253 4666 
z
" transform="scale(0.015625)"/>
      <path id="DejaVuSansDisplay-2014" d="M 313 1978 
L 6088 1978 
L 6088 1528 
L 313 1528 
L 313 1978 
z
" transform="scale(0.015625)"/>
      <path id="DejaVuSans-78" d="M 3513 3500 
L 2247 1797 
L 3578 0 
L 2900 0 
L 1881 1375 
L 863 0 
L 184 0 
L 1544 1831 
L 300 3500 
L 978 3500 
L 1906 2253 
L 2834 3500 
L 3513 3500 
z
" transform="scale(0.015625)"/>
      <path id="DejaVuSans-63" d="M 3122 3366 
L 3122 2828 
Q 2878 2963 2633 3030 
Q 2388 3097 2138 3097 
Q 1578 3097 1268 2742 
Q 959 2388 959 1747 
Q 959 1106 1268 751 
Q 1578 397 2138 397 
Q 2388 397 2633 464 
Q 2878 531 3122 666 
L 3122 134 
Q 2881 22 2623 -34 
Q 2366 -91 2075 -91 
Q 1284 -91 818 406 
Q 353 903 353 1747 
Q 353 2603 823 3093 
Q 1294 3584 2113 3584 
Q 2378 3584 2631 3529 
Q 2884 3475 3122 3366 
z
" transform="scale(0.015625)"/>
      <path id="DejaVuSans-75" d="M 544 1381 
L 544 3500 
L 1119 3500 
L 1119 1403 
Q 1119 906 1312 657 
Q 1506 409 1894 409 
Q 2359 409 2629 706 
Q 2900 1003 2900 1516 
L 2900 3500 
L 3475 3500 
L 3475 0 
L 2900 0 
L 2900 538 
Q 2691 219 2414 64 
Q 2138 -91 1772 -91 
Q 1169 -91 856 284 
Q 544 659 544 1381 
z
M 1991 3584 
L 1991 3584 
z
" transform="scale(0.015625)"/>
      <path id="DejaVuSans-69" d="M 603 3500 
L 1178 3500 
L 1178 0 
L 603 0 
L 603 3500 
z
M 603 4863 
L 1178 4863 
L 1178 4134 
L 603 4134 
L 603 4863 
z
" transform="scale(0.015625)"/>
      <path id="DejaVuSans-6f" d="M 1959 3097 
Q 1497 3097 1228 2736 
Q 959 2375 959 1747 
Q 959 1119 1226 758 
Q 1494 397 1959 397 
Q 2419 397 2687 759 
Q 2956 1122 2956 1747 
Q 2956 2369 2687 2733 
Q 2419 3097 1959 3097 
z
M 1959 3584 
Q 2709 3584 3137 3096 
Q 3566 2609 3566 1747 
Q 3566 888 3137 398 
Q 2709 -91 1959 -91 
Q 1206 -91 779 398 
Q 353 888 353 1747 
Q 353 2609 779 3096 
Q 1206 3584 1959 3584 
z
" transform="scale(0.015625)"/>
      <path id="DejaVuSans-6e" d="M 3513 2113 
L 3513 0 
L 2938 0 
L 2938 2094 
Q 2938 2591 2744 2837 
Q 2550 3084 2163 3084 
Q 1697 3084 1428 2787 
Q 1159 2491 1159 1978 
L 1159 0 
L 581 0 
L 581 3500 
L 1159 3500 
L 1159 2956 
Q 1366 3272 1645 3428 
Q 1925 3584 2291 3584 
Q 2894 3584 3203 3211 
Q 3513 2838 3513 2113 
z
" transform="scale(0.015625)"/>
      <path id="DejaVuSans-3a" d="M 750 794 
L 1409 794 
L 1409 0 
L 750 0 
L 750 794 
z
M 750 3309 
L 1409 3309 
L 1409 2516 
L 750 2516 
L 750 3309 
z
" transform="scale(0.015625)"/>
      <path id="DejaVuSans-62" d="M 3116 1747 
Q 3116 2381 2855 2742 
Q 2594 3103 2138 3103 
Q 1681 3103 1420 2742 
Q 1159 2381 1159 1747 
Q 1159 1113 1420 752 
Q 1681 391 2138 391 
Q 2594 391 2855 752 
Q 3116 1113 3116 1747 
z
M 1159 2969 
Q 1341 3281 1617 3432 
Q 1894 3584 2278 3584 
Q 2916 3584 3314 3078 
Q 3713 2572 3713 1747 
Q 3713 922 3314 415 
Q 2916 -91 2278 -91 
Q 1894 -91 1617 61 
Q 1341 213 1159 525 
L 1159 0 
L 581 0 
L 581 4863 
L 1159 4863 
L 1159 2969 
z
" transform="scale(0.015625)"/>
      <path id="DejaVuSans-73" d="M 2834 3397 
L 2834 2853 
Q 2591 2978 2328 3040 
Q 2066 3103 1784 3103 
Q 1356 3103 1142 2972 
Q 928 2841 928 2578 
Q 928 2378 1081 2264 
Q 1234 2150 1697 2047 
L 1894 2003 
Q 2506 1872 2764 1633 
Q 3022 1394 3022 966 
Q 3022 478 2636 193 
Q 2250 -91 1575 -91 
Q 1294 -91 989 -36 
Q 684 19 347 128 
L 347 722 
Q 666 556 975 473 
Q 1284 391 1588 391 
Q 1994 391 2212 530 
Q 2431 669 2431 922 
Q 2431 1156 2273 1281 
Q 2116 1406 1581 1522 
L 1381 1569 
Q 847 1681 609 1914 
Q 372 2147 372 2553 
Q 372 3047 722 3315 
Q 1072 3584 1716 3584 
Q 2034 3584 2315 3537 
Q 2597 3491 2834 3397 
z
" transform="scale(0.015625)"/>
      <path id="DejaVuSans-72" d="M 2631 2963 
Q 2534 3019 2420 3045 
Q 2306 3072 2169 3072 
Q 1681 3072 1420 2755 
Q 1159 2438 1159 1844 
L 1159 0 
L 581 0 
L 581 3500 
L 1159 3500 
L 1159 2956 
Q 1341 3275 1631 3429 
Q 1922 3584 2338 3584 
Q 2397 3584 2469 3576 
Q 2541 3569 2628 3553 
L 2631 2963 
z
" transform="scale(0.015625)"/>
      <path id="DejaVuSans-76" d="M 191 3500 
L 800 3500 
L 1894 563 
L 2988 3500 
L 3597 3500 
L 2284 0 
L 1503 0 
L 191 3500 
z
" transform="scale(0.015625)"/>
      <path id="DejaVuSans-61" d="M 2194 1759 
Q 1497 1759 1228 1600 
Q 959 1441 959 1056 
Q 959 750 1161 570 
Q 1363 391 1709 391 
Q 2188 391 2477 730 
Q 2766 1069 2766 1631 
L 2766 1759 
L 2194 1759 
z
M 3341 1997 
L 3341 0 
L 2766 0 
L 2766 531 
Q 2569 213 2275 61 
Q 1981 -91 1556 -91 
Q 1019 -91 701 211 
Q 384 513 384 1019 
Q 384 1609 779 1909 
Q 1175 2209 1959 2209 
L 2766 2209 
L 2766 2266 
Q 2766 2663 2505 2880 
Q 2244 3097 1772 3097 
Q 1472 3097 1187 3025 
Q 903 2953 641 2809 
L 641 3341 
Q 956 3463 1253 3523 
Q 1550 3584 1831 3584 
Q 2591 3584 2966 3190 
Q 3341 2797 3341 1997 
z
" transform="scale(0.015625)"/>
      <path id="DejaVuSans-64" d="M 2906 2969 
L 2906 4863 
L 3481 4863 
L 3481 0 
L 2906 0 
L 2906 525 
Q 2725 213 2448 61 
Q 2172 -91 1784 -91 
Q 1150 -91 751 415 
Q 353 922 353 1747 
Q 353 2572 751 3078 
Q 1150 3584 1784 3584 
Q 2172 3584 2448 3432 
Q 2725 3281 2906 2969 
z
M 947 1747 
Q 947 1113 1208 752 
Q 1469 391 1925 391 
Q 2381 391 2643 752 
Q 2906 1113 2906 1747 
Q 2906 2381 2643 2742 
Q 2381 3103 1925 3103 
Q 1469 3103 1208 2742 
Q 947 2381 947 1747 
z
" transform="scale(0.015625)"/>
      <path id="DejaVuSans-67" d="M 2906 1791 
Q 2906 2416 2648 2759 
Q 2391 3103 1925 3103 
Q 1463 3103 1205 2759 
Q 947 2416 947 1791 
Q 947 1169 1205 825 
Q 1463 481 1925 481 
Q 2391 481 2648 825 
Q 2906 1169 2906 1791 
z
M 3481 434 
Q 3481 -459 3084 -895 
Q 2688 -1331 1869 -1331 
Q 1566 -1331 1297 -1286 
Q 1028 -1241 775 -1147 
L 775 -588 
Q 1028 -725 1275 -790 
Q 1522 -856 1778 -856 
Q 2344 -856 2625 -561 
Q 2906 -266 2906 331 
L 2906 616 
Q 2728 306 2450 153 
Q 2172 0 1784 0 
Q 1141 0 747 490 
Q 353 981 353 1791 
Q 353 2603 747 3093 
Q 1141 3584 1784 3584 
Q 2172 3584 2450 3431 
Q 2728 3278 2906 2969 
L 2906 3500 
L 3481 3500 
L 3481 434 
z
" transform="scale(0.015625)"/>
     </defs>
     <use xlink:href="#DejaVuSans-53" transform="translate(0 0.015625)"/>
     <use xlink:href="#DejaVuSans-74" transform="translate(63.476562 0.015625)"/>
     <use xlink:href="#DejaVuSans-65" transform="translate(102.685547 0.015625)"/>
     <use xlink:href="#DejaVuSans-70" transform="translate(164.208984 0.015625)"/>
     <use xlink:href="#DejaVuSans-20" transform="translate(227.685547 0.015625)"/>
     <use xlink:href="#DejaVuSans-34" transform="translate(259.472656 0.015625)"/>
     <use xlink:href="#DejaVuSans-20" transform="translate(323.095703 0.015625)"/>
     <use xlink:href="#DejaVuSansDisplay-2014" transform="translate(354.882812 0.015625)"/>
     <use xlink:href="#DejaVuSans-20" transform="translate(454.882812 0.015625)"/>
     <use xlink:href="#DejaVuSans-65" transform="translate(486.669922 0.015625)"/>
     <use xlink:href="#DejaVuSans-78" transform="translate(548.193359 0.015625)"/>
     <use xlink:href="#DejaVuSans-65" transform="translate(607.373047 0.015625)"/>
     <use xlink:href="#DejaVuSans-63" transform="translate(668.896484 0.015625)"/>
     <use xlink:href="#DejaVuSans-75" transform="translate(723.876953 0.015625)"/>
     <use xlink:href="#DejaVuSans-74" transform="translate(787.255859 0.015625)"/>
     <use xlink:href="#DejaVuSans-69" transform="translate(826.464844 0.015625)"/>
     <use xlink:href="#DejaVuSans-6f" transform="translate(854.248047 0.015625)"/>
     <use xlink:href="#DejaVuSans-6e" transform="translate(915.429688 0.015625)"/>
     <use xlink:href="#DejaVuSans-20" transform="translate(978.808594 0.015625)"/>
     <use xlink:href="#DejaVuSans-Oblique-58" transform="translate(1010.595703 0.015625)"/>
     <use xlink:href="#DejaVuSans-Oblique-74" transform="translate(1079.101562 -16.390625) scale(0.7)"/>
     <use xlink:href="#DejaVuSans-3a" transform="translate(1109.282227 0.015625)"/>
     <use xlink:href="#DejaVuSans-20" transform="translate(1142.973633 0.015625)"/>
     <use xlink:href="#DejaVuSans-6f" transform="translate(1174.760742 0.015625)"/>
     <use xlink:href="#DejaVuSans-62" transform="translate(1235.942383 0.015625)"/>
     <use xlink:href="#DejaVuSans-73" transform="translate(1299.418945 0.015625)"/>
     <use xlink:href="#DejaVuSans-65" transform="translate(1351.518555 0.015625)"/>
     <use xlink:href="#DejaVuSans-72" transform="translate(1413.041992 0.015625)"/>
     <use xlink:href="#DejaVuSans-76" transform="translate(1454.155273 0.015625)"/>
     <use xlink:href="#DejaVuSans-61" transform="translate(1513.334961 0.015625)"/>
     <use xlink:href="#DejaVuSans-74" transform="translate(1574.614258 0.015625)"/>
     <use xlink:href="#DejaVuSans-69" transform="translate(1613.823242 0.015625)"/>
     <use xlink:href="#DejaVuSans-6f" transform="translate(1641.606445 0.015625)"/>
     <use xlink:href="#DejaVuSans-6e" transform="translate(1702.788086 0.015625)"/>
     <use xlink:href="#DejaVuSans-20" transform="translate(1766.166992 0.015625)"/>
     <use xlink:href="#DejaVuSans-65" transform="translate(1797.954102 0.015625)"/>
     <use xlink:href="#DejaVuSans-64" transform="translate(1859.477539 0.015625)"/>
     <use xlink:href="#DejaVuSans-67" transform="translate(1922.954102 0.015625)"/>
     <use xlink:href="#DejaVuSans-65" transform="translate(1986.430664 0.015625)"/>
     <use xlink:href="#DejaVuSans-73" transform="translate(2047.954102 0.015625)"/>
    </g>
   </g>
  </g>
 </g>
 <defs>
  <clipPath id="p0412c34ddd">
   <rect x="7.2" y="27.84" width="451.98" height="311.04"/>
  </clipPath>
 </defs>
</svg>
