<?xml version="1.0" encoding="utf-8" standalone="no"?>
<!DOCTYPE svg PUBLIC "-//W3C//DTD SVG 1.1//EN"
  "http://www.w3.org/Graphics/SVG/1.1/DTD/svg11.dtd">
<svg xmlns:xlink="http://www.w3.org/1999/xlink" width="466.38pt" height="346.08pt" viewBox="0 0 466.38 346.08" xmlns="http://www.w3.org/2000/svg" version="1.1">
 <metadata>
  <rdf:RDF xmlns:dc="http://purl.org/dc/elements/1.1/" xmlns:cc="http://creativecommons.org/ns#" xmlns:rdf="http://www.w3.org/1999/02/22-rdf-syntax-ns#">
   <cc:Work>
    <dc:type rdf:resource="http://purl.org/dc/dcmitype/StillImage"/>
    <dc:date>2026-04-22T02:45:07.313416</dc:date>
    <dc:format>image/svg+xml</dc:format>
    <dc:creator>
     <cc:Agent>
      <dc:title>Matplotlib v3.10.8, https://matplotlib.org/</dc:title>
     </cc:Agent>
    </dc:creator>
   </cc:Work>
  </rdf:RDF>
 </metadata>
 <defs>
  <style type="text/css">*{stroke-linejoin: round; stroke-linecap: butt}</style>
 </defs>
 <g id="figure_1">
  <g id="patch_1">
   <path d="M 0 346.08 
L 466.38 346.08 
L 466.38 0 
L 0 0 
z
" style="fill: #ffffff"/>
  </g>
  <g id="axes_1">
   <g id="patch_2">
    <path d="M 80.1 115.32 
C 86.544435 115.32 92.725791 112.759599 97.282695 108.202695 
C 101.839599 103.645791 104.4 97.464435 104.4 91.02 
C 104.4 84.575565 101.839599 78.394209 97.282695 73.837305 
C 92.725791 69.280401 86.544435 66.72 80.1 66.72 
C 73.655565 66.72 67.474209 69.280401 62.917305 73.837305 
C 58.360401 78.394209 55.8 84.575565 55.8 91.02 
C 55.8 97.464435 58.360401 103.645791 62.917305 108.202695 
C 67.474209 112.759599 73.655565 115.32 80.1 115.32 
z
" clip-path="url(#pda6b247ac0)" style="fill: #ffffff; stroke: #c0392b; stroke-width: 2.2; stroke-linejoin: miter"/>
   </g>
   <g id="text_1">
    <!-- $Z_{t-1}$ -->
    <g transform="translate(61.7 95.435) scale(0.16 -0.16)">
     <defs>
      <path id="DejaVuSans-Oblique-5a" d="M 838 4666 
L 4500 4666 
L 4409 4184 
L 794 531 
L 3769 531 
L 3669 0 
L -141 0 
L -50 481 
L 3566 4134 
L 738 4134 
L 838 4666 
z
" transform="scale(0.015625)"/>
      <path id="DejaVuSans-Oblique-74" d="M 2706 3500 
L 2619 3053 
L 1472 3053 
L 1100 1153 
Q 1081 1047 1072 975 
Q 1063 903 1063 863 
Q 1063 663 1183 572 
Q 1303 481 1569 481 
L 2150 481 
L 2053 0 
L 1503 0 
Q 991 0 739 200 
Q 488 400 488 806 
Q 488 878 497 964 
Q 506 1050 525 1153 
L 897 3053 
L 409 3053 
L 500 3500 
L 978 3500 
L 1172 4494 
L 1747 4494 
L 1556 3500 
L 2706 3500 
z
" transform="scale(0.015625)"/>
      <path id="DejaVuSans-2212" d="M 678 2272 
L 4684 2272 
L 4684 1741 
L 678 1741 
L 678 2272 
z
" transform="scale(0.015625)"/>
      <path id="DejaVuSans-31" d="M 794 531 
L 1825 531 
L 1825 4091 
L 703 3866 
L 703 4441 
L 1819 4666 
L 2450 4666 
L 2450 531 
L 3481 531 
L 3481 0 
L 794 0 
L 794 531 
z
" transform="scale(0.015625)"/>
     </defs>
     <use xlink:href="#DejaVuSans-Oblique-5a" transform="translate(0 0.09375)"/>
     <use xlink:href="#DejaVuSans-Oblique-74" transform="translate(68.505859 -16.3125) scale(0.7)"/>
     <use xlink:href="#DejaVuSans-2212" transform="translate(109.589844 -16.3125) scale(0.7)"/>
     <use xlink:href="#DejaVuSans-31" transform="translate(181.879883 -16.3125) scale(0.7)"/>
    </g>
   </g>
   <g id="text_2">
    <!-- Step 1 — latent state $Z_{t-1}$ -->
    <g style="fill: #333333" transform="translate(7.2 17.84) scale(0.14 -0.14)">
     <defs>
      <path id="DejaVuSans-53" d="M 3425 4513 
L 3425 3897 
Q 3066 4069 2747 4153 
Q 2428 4238 2131 4238 
Q 1616 4238 1336 4038 
Q 1056 3838 1056 3469 
Q 1056 3159 1242 3001 
Q 1428 2844 1947 2747 
L 2328 2669 
Q 3034 2534 3370 2195 
Q 3706 1856 3706 1288 
Q 3706 609 3251 259 
Q 2797 -91 1919 -91 
Q 1588 -91 1214 -16 
Q 841 59 441 206 
L 441 856 
Q 825 641 1194 531 
Q 1563 422 1919 422 
Q 2459 422 2753 634 
Q 3047 847 3047 1241 
Q 3047 1584 2836 1778 
Q 2625 1972 2144 2069 
L 1759 2144 
Q 1053 2284 737 2584 
Q 422 2884 422 3419 
Q 422 4038 858 4394 
Q 1294 4750 2059 4750 
Q 2388 4750 2728 4690 
Q 3069 4631 3425 4513 
z
" transform="scale(0.015625)"/>
      <path id="DejaVuSans-74" d="M 1172 4494 
L 1172 3500 
L 2356 3500 
L 2356 3053 
L 1172 3053 
L 1172 1153 
Q 1172 725 1289 603 
Q 1406 481 1766 481 
L 2356 481 
L 2356 0 
L 1766 0 
Q 1100 0 847 248 
Q 594 497 594 1153 
L 594 3053 
L 172 3053 
L 172 3500 
L 594 3500 
L 594 4494 
L 1172 4494 
z
" transform="scale(0.015625)"/>
      <path id="DejaVuSans-65" d="M 3597 1894 
L 3597 1613 
L 953 1613 
Q 991 1019 1311 708 
Q 1631 397 2203 397 
Q 2534 397 2845 478 
Q 3156 559 3463 722 
L 3463 178 
Q 3153 47 2828 -22 
Q 2503 -91 2169 -91 
Q 1331 -91 842 396 
Q 353 884 353 1716 
Q 353 2575 817 3079 
Q 1281 3584 2069 3584 
Q 2775 3584 3186 3129 
Q 3597 2675 3597 1894 
z
M 3022 2063 
Q 3016 2534 2758 2815 
Q 2500 3097 2075 3097 
Q 1594 3097 1305 2825 
Q 1016 2553 972 2059 
L 3022 2063 
z
" transform="scale(0.015625)"/>
      <path id="DejaVuSans-70" d="M 1159 525 
L 1159 -1331 
L 581 -1331 
L 581 3500 
L 1159 3500 
L 1159 2969 
Q 1341 3281 1617 3432 
Q 1894 3584 2278 3584 
Q 2916 3584 3314 3078 
Q 3713 2572 3713 1747 
Q 3713 922 3314 415 
Q 2916 -91 2278 -91 
Q 1894 -91 1617 61 
Q 1341 213 1159 525 
z
M 3116 1747 
Q 3116 2381 2855 2742 
Q 2594 3103 2138 3103 
Q 1681 3103 1420 2742 
Q 1159 2381 1159 1747 
Q 1159 1113 1420 752 
Q 1681 391 2138 391 
Q 2594 391 2855 752 
Q 3116 1113 3116 1747 
z
" transform="scale(0.015625)"/>
      <path id="DejaVuSans-20" transform="scale(0.015625)"/>
      <path id="DejaVuSansDisplay-2014" d="M 313 1978 
L 6088 1978 
L 6088 1528 
L 313 1528 
L 313 1978 
z
" transform="scale(0.015625)"/>
      <path id="DejaVuSans-6c" d="M 603 4863 
L 1178 4863 
L 1178 0 
L 603 0 
L 603 4863 
z
" transform="scale(0.015625)"/>
      <path id="DejaVuSans-61" d="M 2194 1759 
Q 1497 1759 1228 1600 
Q 959 1441 959 1056 
Q 959 750 1161 570 
Q 1363 391 1709 391 
Q 2188 391 2477 730 
Q 2766 1069 2766 1631 
L 2766 1759 
L 2194 1759 
z
M 3341 1997 
L 3341 0 
L 2766 0 
L 2766 531 
Q 2569 213 2275 61 
Q 1981 -91 1556 -91 
Q 1019 -91 701 211 
Q 384 513 384 1019 
Q 384 1609 779 1909 
Q 1175 2209 1959 2209 
L 2766 2209 
L 2766 2266 
Q 2766 2663 2505 2880 
Q 2244 3097 1772 3097 
Q 1472 3097 1187 3025 
Q 903 2953 641 2809 
L 641 3341 
Q 956 3463 1253 3523 
Q 1550 3584 1831 3584 
Q 2591 3584 2966 3190 
Q 3341 2797 3341 1997 
z
" transform="scale(0.015625)"/>
      <path id="DejaVuSans-6e" d="M 3513 2113 
L 3513 0 
L 2938 0 
L 2938 2094 
Q 2938 2591 2744 2837 
Q 2550 3084 2163 3084 
Q 1697 3084 1428 2787 
Q 1159 2491 1159 1978 
L 1159 0 
L 581 0 
L 581 3500 
L 1159 3500 
L 1159 2956 
Q 1366 3272 1645 3428 
Q 1925 3584 2291 3584 
Q 2894 3584 3203 3211 
Q 3513 2838 3513 2113 
z
" transform="scale(0.015625)"/>
      <path id="DejaVuSans-73" d="M 2834 3397 
L 2834 2853 
Q 2591 2978 2328 3040 
Q 2066 3103 1784 3103 
Q 1356 3103 1142 2972 
Q 928 2841 928 2578 
Q 928 2378 1081 2264 
Q 1234 2150 1697 2047 
L 1894 2003 
Q 2506 1872 2764 1633 
Q 3022 1394 3022 966 
Q 3022 478 2636 193 
Q 2250 -91 1575 -91 
Q 1294 -91 989 -36 
Q 684 19 347 128 
L 347 722 
Q 666 556 975 473 
Q 1284 391 1588 391 
Q 1994 391 2212 530 
Q 2431 669 2431 922 
Q 2431 1156 2273 1281 
Q 2116 1406 1581 1522 
L 1381 1569 
Q 847 1681 609 1914 
Q 372 2147 372 2553 
Q 372 3047 722 3315 
Q 1072 3584 1716 3584 
Q 2034 3584 2315 3537 
Q 2597 3491 2834 3397 
z
" transform="scale(0.015625)"/>
     </defs>
     <use xlink:href="#DejaVuSans-53" transform="translate(0 0.015625)"/>
     <use xlink:href="#DejaVuSans-74" transform="translate(63.476562 0.015625)"/>
     <use xlink:href="#DejaVuSans-65" transform="translate(102.685547 0.015625)"/>
     <use xlink:href="#DejaVuSans-70" transform="translate(164.208984 0.015625)"/>
     <use xlink:href="#DejaVuSans-20" transform="translate(227.685547 0.015625)"/>
     <use xlink:href="#DejaVuSans-31" transform="translate(259.472656 0.015625)"/>
     <use xlink:href="#DejaVuSans-20" transform="translate(323.095703 0.015625)"/>
     <use xlink:href="#DejaVuSansDisplay-2014" transform="translate(354.882812 0.015625)"/>
     <use xlink:href="#DejaVuSans-20" transform="translate(454.882812 0.015625)"/>
     <use xlink:href="#DejaVuSans-6c" transform="translate(486.669922 0.015625)"/>
     <use xlink:href="#DejaVuSans-61" transform="translate(514.453125 0.015625)"/>
     <use xlink:href="#DejaVuSans-74" transform="translate(575.732422 0.015625)"/>
     <use xlink:href="#DejaVuSans-65" transform="translate(614.941406 0.015625)"/>
     <use xlink:href="#DejaVuSans-6e" transform="translate(676.464844 0.015625)"/>
     <use xlink:href="#DejaVuSans-74" transform="translate(739.84375 0.015625)"/>
     <use xlink:href="#DejaVuSans-20" transform="translate(779.052734 0.015625)"/>
     <use xlink:href="#DejaVuSans-73" transform="translate(810.839844 0.015625)"/>
     <use xlink:href="#DejaVuSans-74" transform="translate(862.939453 0.015625)"/>
     <use xlink:href="#DejaVuSans-61" transform="translate(902.148438 0.015625)"/>
     <use xlink:href="#DejaVuSans-74" transform="translate(963.427734 0.015625)"/>
     <use xlink:href="#DejaVuSans-65" transform="translate(1002.636719 0.015625)"/>
     <use xlink:href="#DejaVuSans-20" transform="translate(1064.160156 0.015625)"/>
     <use xlink:href="#DejaVuSans-Oblique-5a" transform="translate(1095.947266 0.015625)"/>
     <use xlink:href="#DejaVuSans-Oblique-74" transform="translate(1164.453125 -16.390625) scale(0.7)"/>
     <use xlink:href="#DejaVuSans-2212" transform="translate(1205.537109 -16.390625) scale(0.7)"/>
     <use xlink:href="#DejaVuSans-31" transform="translate(1277.827148 -16.390625) scale(0.7)"/>
    </g>
   </g>
  </g>
 </g>
 <defs>
  <clipPath id="pda6b247ac0">
   <rect x="7.2" y="27.84" width="451.98" height="311.04"/>
  </clipPath>
 </defs>
</svg>
