<?xml version="1.0" encoding="utf-8" standalone="no"?>
<!DOCTYPE svg PUBLIC "-//W3C//DTD SVG 1.1//EN"
  "http://www.w3.org/Graphics/SVG/1.1/DTD/svg11.dtd">
<svg xmlns:xlink="http://www.w3.org/1999/xlink" width="466.38pt" height="346.08pt" viewBox="0 0 466.38 346.08" xmlns="http://www.w3.org/2000/svg" version="1.1">
 <metadata>
  <rdf:RDF xmlns:dc="http://purl.org/dc/elements/1.1/" xmlns:cc="http://creativecommons.org/ns#" xmlns:rdf="http://www.w3.org/1999/02/22-rdf-syntax-ns#">
   <cc:Work>
    <dc:type rdf:resource="http://purl.org/dc/dcmitype/StillImage"/>
    <dc:date>2026-04-22T02:45:07.690435</dc:date>
    <dc:format>image/svg+xml</dc:format>
    <dc:creator>
     <cc:Agent>
      <dc:title>Matplotlib v3.10.8, https://matplotlib.org/</dc:title>
     </cc:Agent>
    </dc:creator>
   </cc:Work>
  </rdf:RDF>
 </metadata>
 <defs>
  <style type="text/css">*{stroke-linejoin: round; stroke-linecap: butt}</style>
 </defs>
 <g id="figure_1">
  <g id="patch_1">
   <path d="M 0 346.08 
L 466.38 346.08 
L 466.38 0 
L 0 0 
z
" style="fill: #ffffff"/>
  </g>
  <g id="axes_1">
   <g id="patch_2">
    <path d="M 284.22 270.138913 
Q 284.22 244.108484 284.22 219.643302 
" clip-path="url(#p96729f181c)" style="fill: none; stroke: #333333; stroke-width: 1.4; stroke-linecap: round"/>
    <path d="M 280.62 226.843302 
L 284.22 219.643302 
L 287.82 226.843302 
z
" clip-path="url(#p96729f181c)" style="fill: #333333; stroke: #333333; stroke-width: 1.4; stroke-linecap: round"/>
   </g>
   <g id="patch_3">
    <path d="M 89.518 114.099987 
Q 112.447617 160.737307 157.681929 182.974697 
" clip-path="url(#p96729f181c)" style="fill: none; stroke: #333333; stroke-width: 1.4; stroke-linecap: round"/>
    <path d="M 152.808734 176.567515 
L 157.681929 182.974697 
L 149.632267 183.028944 
z
" clip-path="url(#p96729f181c)" style="fill: #333333; stroke: #333333; stroke-width: 1.4; stroke-linecap: round"/>
   </g>
   <g id="patch_4">
    <path d="M 307.299987 183.662 
Q 353.754725 160.822151 375.594933 116.662959 
" clip-path="url(#p96729f181c)" style="fill: none; stroke: #c0392b; stroke-width: 2.2; stroke-linecap: round"/>
    <path d="M 369.176109 121.520809 
L 375.594933 116.662959 
L 375.629919 124.712727 
z
" clip-path="url(#p96729f181c)" style="fill: #c0392b; stroke: #c0392b; stroke-width: 2.2; stroke-linecap: round"/>
   </g>
   <g id="patch_5">
    <path d="M 102.447427 102.193714 
Q 182.160148 142.050074 260.472868 181.206434 
" clip-path="url(#p96729f181c)" style="fill: none; stroke: #333333; stroke-width: 1.4; stroke-linecap: round"/>
    <path d="M 255.642962 174.766558 
L 260.472868 181.206434 
L 252.423024 181.206434 
z
" clip-path="url(#p96729f181c)" style="fill: #333333; stroke: #333333; stroke-width: 1.4; stroke-linecap: round"/>
   </g>
   <g id="patch_6">
    <path d="M 207.161087 193.08 
Q 233.191516 193.08 257.656698 193.08 
" clip-path="url(#p96729f181c)" style="fill: none; stroke: #333333; stroke-width: 1.4; stroke-linecap: round"/>
    <path d="M 250.456698 189.48 
L 257.656698 193.08 
L 250.456698 196.68 
z
" clip-path="url(#p96729f181c)" style="fill: #333333; stroke: #333333; stroke-width: 1.4; stroke-linecap: round"/>
   </g>
   <g id="patch_7">
    <path d="M 284.22 217.38 
C 290.664435 217.38 296.845791 214.819599 301.402695 210.262695 
C 305.959599 205.705791 308.52 199.524435 308.52 193.08 
C 308.52 186.635565 305.959599 180.454209 301.402695 175.897305 
C 296.845791 171.340401 290.664435 168.78 284.22 168.78 
C 277.775565 168.78 271.594209 171.340401 267.037305 175.897305 
C 262.480401 180.454209 259.92 186.635565 259.92 193.08 
C 259.92 199.524435 262.480401 205.705791 267.037305 210.262695 
C 271.594209 214.819599 277.775565 217.38 284.22 217.38 
z
" clip-path="url(#p96729f181c)" style="fill: #e8e8e8; stroke: #333333; stroke-width: 1.4; stroke-linejoin: miter"/>
   </g>
   <g id="patch_8">
    <path d="M 182.16 217.38 
C 188.604435 217.38 194.785791 214.819599 199.342695 210.262695 
C 203.899599 205.705791 206.46 199.524435 206.46 193.08 
C 206.46 186.635565 203.899599 180.454209 199.342695 175.897305 
C 194.785791 171.340401 188.604435 168.78 182.16 168.78 
C 175.715565 168.78 169.534209 171.340401 164.977305 175.897305 
C 160.420401 180.454209 157.86 186.635565 157.86 193.08 
C 157.86 199.524435 160.420401 205.705791 164.977305 210.262695 
C 169.534209 214.819599 175.715565 217.38 182.16 217.38 
z
" clip-path="url(#p96729f181c)" style="fill: #e8e8e8; stroke: #333333; stroke-width: 1.4; stroke-linejoin: miter"/>
   </g>
   <g id="patch_9">
    <path d="M 284.22 319.44 
C 290.664435 319.44 296.845791 316.879599 301.402695 312.322695 
C 305.959599 307.765791 308.52 301.584435 308.52 295.14 
C 308.52 288.695565 305.959599 282.514209 301.402695 277.957305 
C 296.845791 273.400401 290.664435 270.84 284.22 270.84 
C 277.775565 270.84 271.594209 273.400401 267.037305 277.957305 
C 262.480401 282.514209 259.92 288.695565 259.92 295.14 
C 259.92 301.584435 262.480401 307.765791 267.037305 312.322695 
C 271.594209 316.879599 277.775565 319.44 284.22 319.44 
z
" clip-path="url(#p96729f181c)" style="fill: #e8e8e8; stroke: #333333; stroke-width: 1.4; stroke-linejoin: miter"/>
   </g>
   <g id="patch_10">
    <path d="M 386.28 115.32 
C 392.724435 115.32 398.905791 112.759599 403.462695 108.202695 
C 408.019599 103.645791 410.58 97.464435 410.58 91.02 
C 410.58 84.575565 408.019599 78.394209 403.462695 73.837305 
C 398.905791 69.280401 392.724435 66.72 386.28 66.72 
C 379.835565 66.72 373.654209 69.280401 369.097305 73.837305 
C 364.540401 78.394209 361.98 84.575565 361.98 91.02 
C 361.98 97.464435 364.540401 103.645791 369.097305 108.202695 
C 373.654209 112.759599 379.835565 115.32 386.28 115.32 
z
" clip-path="url(#p96729f181c)" style="fill: #ffffff; stroke: #c0392b; stroke-width: 2.2; stroke-linejoin: miter"/>
   </g>
   <g id="patch_11">
    <path d="M 80.1 115.32 
C 86.544435 115.32 92.725791 112.759599 97.282695 108.202695 
C 101.839599 103.645791 104.4 97.464435 104.4 91.02 
C 104.4 84.575565 101.839599 78.394209 97.282695 73.837305 
C 92.725791 69.280401 86.544435 66.72 80.1 66.72 
C 73.655565 66.72 67.474209 69.280401 62.917305 73.837305 
C 58.360401 78.394209 55.8 84.575565 55.8 91.02 
C 55.8 97.464435 58.360401 103.645791 62.917305 108.202695 
C 67.474209 112.759599 73.655565 115.32 80.1 115.32 
z
" clip-path="url(#p96729f181c)" style="fill: #ffffff; stroke: #333333; stroke-width: 1.4; stroke-linejoin: miter"/>
   </g>
   <g id="text_1">
    <!-- $X_{t}$ -->
    <g transform="translate(276.3 197.495) scale(0.16 -0.16)">
     <defs>
      <path id="DejaVuSans-Oblique-58" d="M 878 4666 
L 1516 4666 
L 2316 2981 
L 3763 4666 
L 4500 4666 
L 2578 2438 
L 3738 0 
L 3103 0 
L 2163 1966 
L 459 0 
L -275 0 
L 1906 2509 
L 878 4666 
z
" transform="scale(0.015625)"/>
      <path id="DejaVuSans-Oblique-74" d="M 2706 3500 
L 2619 3053 
L 1472 3053 
L 1100 1153 
Q 1081 1047 1072 975 
Q 1063 903 1063 863 
Q 1063 663 1183 572 
Q 1303 481 1569 481 
L 2150 481 
L 2053 0 
L 1503 0 
Q 991 0 739 200 
Q 488 400 488 806 
Q 488 878 497 964 
Q 506 1050 525 1153 
L 897 3053 
L 409 3053 
L 500 3500 
L 978 3500 
L 1172 4494 
L 1747 4494 
L 1556 3500 
L 2706 3500 
z
" transform="scale(0.015625)"/>
     </defs>
     <use xlink:href="#DejaVuSans-Oblique-58" transform="translate(0 0.09375)"/>
     <use xlink:href="#DejaVuSans-Oblique-74" transform="translate(68.505859 -16.3125) scale(0.7)"/>
    </g>
   </g>
   <g id="text_2">
    <!-- $P_{t}$ -->
    <g transform="translate(174.88 197.495) scale(0.16 -0.16)">
     <defs>
      <path id="DejaVuSans-Oblique-50" d="M 1081 4666 
L 2541 4666 
Q 3178 4666 3512 4369 
Q 3847 4072 3847 3500 
Q 3847 2731 3353 2303 
Q 2859 1875 1966 1875 
L 1172 1875 
L 806 0 
L 172 0 
L 1081 4666 
z
M 1613 4147 
L 1275 2394 
L 2069 2394 
Q 2606 2394 2893 2669 
Q 3181 2944 3181 3456 
Q 3181 3784 2986 3965 
Q 2791 4147 2438 4147 
L 1613 4147 
z
" transform="scale(0.015625)"/>
     </defs>
     <use xlink:href="#DejaVuSans-Oblique-50" transform="translate(0 0.09375)"/>
     <use xlink:href="#DejaVuSans-Oblique-74" transform="translate(60.302734 -16.3125) scale(0.7)"/>
    </g>
   </g>
   <g id="text_3">
    <!-- $E_{t}$ -->
    <g transform="translate(276.7 299.555) scale(0.16 -0.16)">
     <defs>
      <path id="DejaVuSans-Oblique-45" d="M 1081 4666 
L 4031 4666 
L 3928 4134 
L 1606 4134 
L 1338 2753 
L 3566 2753 
L 3463 2222 
L 1234 2222 
L 909 531 
L 3284 531 
L 3181 0 
L 172 0 
L 1081 4666 
z
" transform="scale(0.015625)"/>
     </defs>
     <use xlink:href="#DejaVuSans-Oblique-45" transform="translate(0 0.09375)"/>
     <use xlink:href="#DejaVuSans-Oblique-74" transform="translate(63.183594 -16.3125) scale(0.7)"/>
    </g>
   </g>
   <g id="text_4">
    <!-- $Z_{t}$ -->
    <g transform="translate(378.36 95.435) scale(0.16 -0.16)">
     <defs>
      <path id="DejaVuSans-Oblique-5a" d="M 838 4666 
L 4500 4666 
L 4409 4184 
L 794 531 
L 3769 531 
L 3669 0 
L -141 0 
L -50 481 
L 3566 4134 
L 738 4134 
L 838 4666 
z
" transform="scale(0.015625)"/>
     </defs>
     <use xlink:href="#DejaVuSans-Oblique-5a" transform="translate(0 0.09375)"/>
     <use xlink:href="#DejaVuSans-Oblique-74" transform="translate(68.505859 -16.3125) scale(0.7)"/>
    </g>
   </g>
   <g id="text_5">
    <!-- $Z_{t-1}$ -->
    <g transform="translate(61.7 95.435) scale(0.16 -0.16)">
     <defs>
      <path id="DejaVuSans-2212" d="M 678 2272 
L 4684 2272 
L 4684 1741 
L 678 1741 
L 678 2272 
z
" transform="scale(0.015625)"/>
      <path id="DejaVuSans-31" d="M 794 531 
L 1825 531 
L 1825 4091 
L 703 3866 
L 703 4441 
L 1819 4666 
L 2450 4666 
L 2450 531 
L 3481 531 
L 3481 0 
L 794 0 
L 794 531 
z
" transform="scale(0.015625)"/>
     </defs>
     <use xlink:href="#DejaVuSans-Oblique-5a" transform="translate(0 0.09375)"/>
     <use xlink:href="#DejaVuSans-Oblique-74" transform="translate(68.505859 -16.3125) scale(0.7)"/>
     <use xlink:href="#DejaVuSans-2212" transform="translate(109.589844 -16.3125) scale(0.7)"/>
     <use xlink:href="#DejaVuSans-31" transform="translate(181.879883 -16.3125) scale(0.7)"/>
    </g>
   </g>
   <g id="text_6">
    <!-- Step 5 — intervention: $X_t \to Z_t$ -->
    <g style="fill: #333333" transform="translate(7.2 17.84) scale(0.14 -0.14)">
     <defs>
      <path id="DejaVuSans-53" d="M 3425 4513 
L 3425 3897 
Q 3066 4069 2747 4153 
Q 2428 4238 2131 4238 
Q 1616 4238 1336 4038 
Q 1056 3838 1056 3469 
Q 1056 3159 1242 3001 
Q 1428 2844 1947 2747 
L 2328 2669 
Q 3034 2534 3370 2195 
Q 3706 1856 3706 1288 
Q 3706 609 3251 259 
Q 2797 -91 1919 -91 
Q 1588 -91 1214 -16 
Q 841 59 441 206 
L 441 856 
Q 825 641 1194 531 
Q 1563 422 1919 422 
Q 2459 422 2753 634 
Q 3047 847 3047 1241 
Q 3047 1584 2836 1778 
Q 2625 1972 2144 2069 
L 1759 2144 
Q 1053 2284 737 2584 
Q 422 2884 422 3419 
Q 422 4038 858 4394 
Q 1294 4750 2059 4750 
Q 2388 4750 2728 4690 
Q 3069 4631 3425 4513 
z
" transform="scale(0.015625)"/>
      <path id="DejaVuSans-74" d="M 1172 4494 
L 1172 3500 
L 2356 3500 
L 2356 3053 
L 1172 3053 
L 1172 1153 
Q 1172 725 1289 603 
Q 1406 481 1766 481 
L 2356 481 
L 2356 0 
L 1766 0 
Q 1100 0 847 248 
Q 594 497 594 1153 
L 594 3053 
L 172 3053 
L 172 3500 
L 594 3500 
L 594 4494 
L 1172 4494 
z
" transform="scale(0.015625)"/>
      <path id="DejaVuSans-65" d="M 3597 1894 
L 3597 1613 
L 953 1613 
Q 991 1019 1311 708 
Q 1631 397 2203 397 
Q 2534 397 2845 478 
Q 3156 559 3463 722 
L 3463 178 
Q 3153 47 2828 -22 
Q 2503 -91 2169 -91 
Q 1331 -91 842 396 
Q 353 884 353 1716 
Q 353 2575 817 3079 
Q 1281 3584 2069 3584 
Q 2775 3584 3186 3129 
Q 3597 2675 3597 1894 
z
M 3022 2063 
Q 3016 2534 2758 2815 
Q 2500 3097 2075 3097 
Q 1594 3097 1305 2825 
Q 1016 2553 972 2059 
L 3022 2063 
z
" transform="scale(0.015625)"/>
      <path id="DejaVuSans-70" d="M 1159 525 
L 1159 -1331 
L 581 -1331 
L 581 3500 
L 1159 3500 
L 1159 2969 
Q 1341 3281 1617 3432 
Q 1894 3584 2278 3584 
Q 2916 3584 3314 3078 
Q 3713 2572 3713 1747 
Q 3713 922 3314 415 
Q 2916 -91 2278 -91 
Q 1894 -91 1617 61 
Q 1341 213 1159 525 
z
M 3116 1747 
Q 3116 2381 2855 2742 
Q 2594 3103 2138 3103 
Q 1681 3103 1420 2742 
Q 1159 2381 1159 1747 
Q 1159 1113 1420 752 
Q 1681 391 2138 391 
Q 2594 391 2855 752 
Q 3116 1113 3116 1747 
z
" transform="scale(0.015625)"/>
      <path id="DejaVuSans-20" transform="scale(0.015625)"/>
      <path id="DejaVuSans-35" d="M 691 4666 
L 3169 4666 
L 3169 4134 
L 1269 4134 
L 1269 2991 
Q 1406 3038 1543 3061 
Q 1681 3084 1819 3084 
Q 2600 3084 3056 2656 
Q 3513 2228 3513 1497 
Q 3513 744 3044 326 
Q 2575 -91 1722 -91 
Q 1428 -91 1123 -41 
Q 819 9 494 109 
L 494 744 
Q 775 591 1075 516 
Q 1375 441 1709 441 
Q 2250 441 2565 725 
Q 2881 1009 2881 1497 
Q 2881 1984 2565 2268 
Q 2250 2553 1709 2553 
Q 1456 2553 1204 2497 
Q 953 2441 691 2322 
L 691 4666 
z
" transform="scale(0.015625)"/>
      <path id="DejaVuSansDisplay-2014" d="M 313 1978 
L 6088 1978 
L 6088 1528 
L 313 1528 
L 313 1978 
z
" transform="scale(0.015625)"/>
      <path id="DejaVuSans-69" d="M 603 3500 
L 1178 3500 
L 1178 0 
L 603 0 
L 603 3500 
z
M 603 4863 
L 1178 4863 
L 1178 4134 
L 603 4134 
L 603 4863 
z
" transform="scale(0.015625)"/>
      <path id="DejaVuSans-6e" d="M 3513 2113 
L 3513 0 
L 2938 0 
L 2938 2094 
Q 2938 2591 2744 2837 
Q 2550 3084 2163 3084 
Q 1697 3084 1428 2787 
Q 1159 2491 1159 1978 
L 1159 0 
L 581 0 
L 581 3500 
L 1159 3500 
L 1159 2956 
Q 1366 3272 1645 3428 
Q 1925 3584 2291 3584 
Q 2894 3584 3203 3211 
Q 3513 2838 3513 2113 
z
" transform="scale(0.015625)"/>
      <path id="DejaVuSans-72" d="M 2631 2963 
Q 2534 3019 2420 3045 
Q 2306 3072 2169 3072 
Q 1681 3072 1420 2755 
Q 1159 2438 1159 1844 
L 1159 0 
L 581 0 
L 581 3500 
L 1159 3500 
L 1159 2956 
Q 1341 3275 1631 3429 
Q 1922 3584 2338 3584 
Q 2397 3584 2469 3576 
Q 2541 3569 2628 3553 
L 2631 2963 
z
" transform="scale(0.015625)"/>
      <path id="DejaVuSans-76" d="M 191 3500 
L 800 3500 
L 1894 563 
L 2988 3500 
L 3597 3500 
L 2284 0 
L 1503 0 
L 191 3500 
z
" transform="scale(0.015625)"/>
      <path id="DejaVuSans-6f" d="M 1959 3097 
Q 1497 3097 1228 2736 
Q 959 2375 959 1747 
Q 959 1119 1226 758 
Q 1494 397 1959 397 
Q 2419 397 2687 759 
Q 2956 1122 2956 1747 
Q 2956 2369 2687 2733 
Q 2419 3097 1959 3097 
z
M 1959 3584 
Q 2709 3584 3137 3096 
Q 3566 2609 3566 1747 
Q 3566 888 3137 398 
Q 2709 -91 1959 -91 
Q 1206 -91 779 398 
Q 353 888 353 1747 
Q 353 2609 779 3096 
Q 1206 3584 1959 3584 
z
" transform="scale(0.015625)"/>
      <path id="DejaVuSans-3a" d="M 750 794 
L 1409 794 
L 1409 0 
L 750 0 
L 750 794 
z
M 750 3309 
L 1409 3309 
L 1409 2516 
L 750 2516 
L 750 3309 
z
" transform="scale(0.015625)"/>
      <path id="DejaVuSans-2192" d="M 5050 2147 
L 5050 1866 
L 3822 638 
L 3447 1013 
L 4175 1741 
L 366 1741 
L 366 2272 
L 4175 2272 
L 3447 3000 
L 3822 3375 
L 5050 2147 
z
" transform="scale(0.015625)"/>
     </defs>
     <use xlink:href="#DejaVuSans-53" transform="translate(0 0.015625)"/>
     <use xlink:href="#DejaVuSans-74" transform="translate(63.476562 0.015625)"/>
     <use xlink:href="#DejaVuSans-65" transform="translate(102.685547 0.015625)"/>
     <use xlink:href="#DejaVuSans-70" transform="translate(164.208984 0.015625)"/>
     <use xlink:href="#DejaVuSans-20" transform="translate(227.685547 0.015625)"/>
     <use xlink:href="#DejaVuSans-35" transform="translate(259.472656 0.015625)"/>
     <use xlink:href="#DejaVuSans-20" transform="translate(323.095703 0.015625)"/>
     <use xlink:href="#DejaVuSansDisplay-2014" transform="translate(354.882812 0.015625)"/>
     <use xlink:href="#DejaVuSans-20" transform="translate(454.882812 0.015625)"/>
     <use xlink:href="#DejaVuSans-69" transform="translate(486.669922 0.015625)"/>
     <use xlink:href="#DejaVuSans-6e" transform="translate(514.453125 0.015625)"/>
     <use xlink:href="#DejaVuSans-74" transform="translate(577.832031 0.015625)"/>
     <use xlink:href="#DejaVuSans-65" transform="translate(617.041016 0.015625)"/>
     <use xlink:href="#DejaVuSans-72" transform="translate(678.564453 0.015625)"/>
     <use xlink:href="#DejaVuSans-76" transform="translate(719.677734 0.015625)"/>
     <use xlink:href="#DejaVuSans-65" transform="translate(778.857422 0.015625)"/>
     <use xlink:href="#DejaVuSans-6e" transform="translate(840.380859 0.015625)"/>
     <use xlink:href="#DejaVuSans-74" transform="translate(903.759766 0.015625)"/>
     <use xlink:href="#DejaVuSans-69" transform="translate(942.96875 0.015625)"/>
     <use xlink:href="#DejaVuSans-6f" transform="translate(970.751953 0.015625)"/>
     <use xlink:href="#DejaVuSans-6e" transform="translate(1031.933594 0.015625)"/>
     <use xlink:href="#DejaVuSans-3a" transform="translate(1095.3125 0.015625)"/>
     <use xlink:href="#DejaVuSans-20" transform="translate(1129.003906 0.015625)"/>
     <use xlink:href="#DejaVuSans-Oblique-58" transform="translate(1160.791016 0.015625)"/>
     <use xlink:href="#DejaVuSans-Oblique-74" transform="translate(1229.296875 -16.390625) scale(0.7)"/>
     <use xlink:href="#DejaVuSans-2192" transform="translate(1278.959961 0.015625)"/>
     <use xlink:href="#DejaVuSans-Oblique-5a" transform="translate(1382.231445 0.015625)"/>
     <use xlink:href="#DejaVuSans-Oblique-74" transform="translate(1450.737305 -16.390625) scale(0.7)"/>
    </g>
   </g>
  </g>
 </g>
 <defs>
  <clipPath id="p96729f181c">
   <rect x="7.2" y="27.84" width="451.98" height="311.04"/>
  </clipPath>
 </defs>
</svg>
